<svg xmlns="http://www.w3.org/2000/svg" version="1.1" xmlns:xlink="http://www.w3.org/1999/xlink" width="512" height="512"><svg width="512" height="512" viewBox="0 0 512 512" fill="none" xmlns="http://www.w3.org/2000/svg">
<path d="M134 436V76H255.648C283.892 76 306.98 81.0977 324.911 91.293C342.959 101.371 356.319 115.023 364.991 132.25C373.664 149.477 378 168.695 378 189.906C378 211.117 373.664 230.395 364.991 247.738C356.436 265.082 343.193 278.91 325.262 289.223C307.331 299.418 284.361 304.516 256.352 304.516H169.158V265.844H254.945C274.282 265.844 289.811 262.504 301.53 255.824C313.25 249.145 321.746 240.121 327.02 228.754C332.411 217.27 335.107 204.32 335.107 189.906C335.107 175.492 332.411 162.602 327.02 151.234C321.746 139.867 313.191 130.961 301.354 124.516C289.518 117.953 273.814 114.672 254.242 114.672H177.597V436H134Z" fill="black"></path>
</svg><style>@media (prefers-color-scheme: light) { :root { filter: none; } }
@media (prefers-color-scheme: dark) { :root { filter: invert(100%); } }
</style></svg>