<svg xmlns="http://www.w3.org/2000/svg" version="1.1" xmlns:xlink="http://www.w3.org/1999/xlink" width="512" height="512"><svg width="512" height="512" viewBox="0 0 512 512" fill="none" xmlns="http://www.w3.org/2000/svg">
<path d="M332.468 288.288C332.468 309.607 325.315 317.859 307.022 317.859H283.915V68.9065H307.022C325.315 68.9065 332.468 77.1591 332.468 98.4783V288.15V288.288ZM306.885 48H260.945V488H283.64V339.178H306.747C339.207 339.178 355.025 322.261 355.025 287.325V99.8537C355.025 65.0553 339.207 48 306.747 48" fill="#BDCD9A"></path>
<path d="M178.695 135.202C178.695 113.883 185.847 105.631 204.14 105.631H227.247V317.997H204.14C185.847 317.997 178.695 309.744 178.695 288.425V135.202ZM156 136.303V287.325C156 322.123 171.817 339.178 204.278 339.178H227.385V488H250.079V84.5864H204.14C171.817 84.5864 156 101.504 156 136.303Z" fill="#BDCD9A"></path>
</svg><style>@media (prefers-color-scheme: light) { :root { filter: none; } }
@media (prefers-color-scheme: dark) { :root { filter: none; } }
</style></svg>